<svg enable-background="new 0 0 102.78 123.1" viewBox="0 0 102.78 123.1" xmlns="http://www.w3.org/2000/svg"><path clip-rule="evenodd" d="m53.79 29.73c1.54 0 2.78 1.25 2.78 2.78s-1.25 2.78-2.78 2.78-2.79-1.24-2.79-2.77 1.25-2.79 2.79-2.79zm4.31 88.92h.06.31c.48-.01.57-.06.94-.3l.36-.23c4.77-3.01 7.04-7.46 7.57-12.92.56-5.8-.8-12.77-3.26-20.4-.01-.03-.02-.06-.03-.09l-6.15-22.39c-.6.26-1.19.51-1.79.75-2.35.98-4.77 1.71-7.24 2.22-2.66.57-5.33.88-8.01.93-5.72.09-11.44-1.04-17.17-3.4l-3.65 14.36c-.7 2.74-1.28 5.17-1.76 7.36-.51 2.32-.97 4.58-1.39 6.88-.21 1.13-.33 1.75-.45 2.38-1.33 6.85-2.74 14.15 1.09 19.9 1.09 1.64 2.5 2.85 4.2 3.66 1.74.82 3.8 1.25 6.16 1.31h.14 2.79v-23.3c0-1.18.96-2.14 2.14-2.14s2.14.96 2.14 2.14v23.28h11.49v-23.28c0-1.18.96-2.14 2.14-2.14s2.14.96 2.14 2.14v23.28zm-43.89-117.2 8.09 7.7c6-2.42 12.05-3.72 18.15-3.78 6.12-.05 12.26 1.16 18.43 3.77l9.05-8.46c.86-.8 2.2-.76 3 .1.38.41.57.93.57 1.44l.11 18.06c2.46 4.3 3.92 8.31 4.53 12.07l3.63-1.18c1.12-.36 2.32.25 2.69 1.37.36 1.12-.25 2.32-1.37 2.69l-4.61 1.5c0 .1 0 .2-.01.29-.08 3.19-.8 6.16-2.04 8.95l2.92.39c1.17.15 1.99 1.22 1.84 2.39s-1.22 1.99-2.39 1.84l-4.59-.61c-.29.44-.6.87-.92 1.3-2.73 3.67-5.99 6.62-9.57 8.89l6.42 23.33c2.62 8.14 4.06 15.66 3.44 22.1-.49 5.13-2.25 9.56-5.69 13.05h10.46.11v.01c6.98 0 12.4 0 17.7-5.14 3.08-2.98 4.37-6.8 4.26-10.6-.06-2.08-.55-4.17-1.39-6.13-.85-1.97-2.05-3.79-3.54-5.33-2.92-3.01-6.97-4.97-11.68-4.83-1.17.03-2.15-.89-2.19-2.07-.03-1.17.89-2.15 2.07-2.19 6-.18 11.15 2.29 14.85 6.11 1.87 1.93 3.36 4.19 4.4 6.62s1.65 5.06 1.72 7.7c.15 4.93-1.53 9.88-5.54 13.77-6.55 6.34-12.71 6.34-20.67 6.34v.01h-.11-17.78-.2-9.12c-.17.04-.35.07-.53.07s-.36-.02-.53-.07h-14.7c-.17.04-.35.07-.53.07s-.36-.02-.53-.07h-4.4c-.08 0-.15 0-.23-.01-2.97-.07-5.61-.63-7.89-1.71-2.41-1.14-4.4-2.85-5.94-5.16-4.79-7.2-3.21-15.37-1.72-23.05.19-.96.37-1.91.45-2.34.42-2.3.89-4.61 1.43-7.03.56-2.54 1.15-5.01 1.78-7.49l3.91-15.37c-4.32-2.53-7.98-5.91-10.53-10.02-.14-.23-.28-.46-.41-.68l-3.45.43c-1.17.14-2.23-.69-2.38-1.86-.14-1.17.69-2.23 1.86-2.38l2.05-.25c-1.08-2.92-1.64-6.11-1.59-9.53l-3.78-1.23c-1.12-.36-1.73-1.57-1.37-2.69s1.57-1.73 2.69-1.37l2.85.93c.6-3.71 1.9-7.65 4.02-11.8l.84-17.41c.06-1.17 1.05-2.08 2.23-2.03.54.02 1.01.24 1.37.58zm6.16 11.75-5.73-5.45-.64 13.21c-.01.3-.09.6-.24.88-2.16 4.13-3.41 8.01-3.89 11.6l13.38 4.34c1.12.36 1.73 1.57 1.37 2.69s-1.57 1.73-2.69 1.37l-12.27-3.99c.11 2.74.7 5.28 1.67 7.59l11.01-1.37c1.17-.14 2.23.69 2.38 1.86.14 1.17-.69 2.24-1.86 2.38l-9.3 1.16c2.23 3.2 5.31 5.85 8.89 7.87 4.01 2.26 8.65 3.72 13.5 4.28 4.29.5 8.72.28 12.99-.71 1.64-.4 3.28-.91 4.92-1.53 5.15-2.03 9.86-5.33 13.55-10.06l-7.62-1.02c-1.17-.15-1.99-1.22-1.84-2.39s1.22-1.99 2.39-1.84l9.64 1.29c1.18-2.28 1.93-4.68 2.16-7.24l-11.42 3.7c-1.12.36-2.32-.25-2.69-1.37-.36-1.12.25-2.32 1.37-2.69l12.63-4.1c-.47-3.57-1.88-7.47-4.38-11.75-.18-.31-.29-.68-.29-1.07l-.08-13.73-6.43 6.02c-.61.64-1.58.85-2.43.47-6.02-2.74-12-4.01-17.94-3.96s-11.87 1.43-17.8 3.98c-.76.32-1.67.18-2.31-.42zm17.17 26.26c-1.18 0-2.14-.96-2.14-2.14s.96-2.14 2.14-2.14h6.61c1.18 0 2.14.96 2.14 2.14s-.96 2.14-2.14 2.14h-1.2c.08 1.25.3 2.35.63 3.28.49 1.4 1.23 2.42 2.12 3.07.87.64 1.91.97 3.03.99.86.02 1.77-.14 2.71-.47 1.11-.39 2.33.19 2.72 1.3s-.19 2.33-1.3 2.72c-1.41.5-2.83.74-4.22.71-2-.04-3.87-.63-5.46-1.81-.79-.59-1.51-1.31-2.13-2.17-.55.89-1.2 1.59-1.95 2.15-2.49 1.85-5.65 1.86-9.07 1.38-1.17-.16-1.98-1.24-1.82-2.4.16-1.17 1.24-1.98 2.4-1.82 2.44.34 4.61.41 5.93-.58 1.2-.9 1.98-2.8 2.09-6.35zm-9.42-9.73c1.54 0 2.78 1.25 2.78 2.78s-1.25 2.78-2.78 2.78c-1.54 0-2.78-1.25-2.78-2.78s1.24-2.78 2.78-2.78z" fill-rule="evenodd" stroke="#000" stroke-miterlimit="2.6131" stroke-width=".216"/></svg>